<?xml version="1.0" encoding="utf-8"?>
<!-- Generator: Adobe Illustrator 16.0.3, SVG Export Plug-In . SVG Version: 6.00 Build 0)  -->
<!DOCTYPE svg PUBLIC "-//W3C//DTD SVG 1.1//EN" "http://www.w3.org/Graphics/SVG/1.1/DTD/svg11.dtd">
<svg version="1.1" id="Masbosques_1_" xmlns="http://www.w3.org/2000/svg" xmlns:xlink="http://www.w3.org/1999/xlink" x="0px"
	 y="0px" width="1920px" height="1080px" viewBox="0 0 1920 1080" enable-background="new 0 0 1920 1080" xml:space="preserve">
<g id="Imagotipo">
	<g id="Masbosques">
		<path fill="#AACC6D" d="M616.851,703.133c-19.897,0-31.462,7.636-37.938,14.807c-2.083,2.311-3.009,5.09-3.009,7.635
			c0,6.013,4.858,10.87,10.871,10.87c2.776,0,4.628-0.691,6.942-2.311c5.784-4.166,12.954-8.792,23.134-8.792
			c13.415,0,21.05,6.941,21.05,17.35v4.166h-30.304c-20.126,0-37.478,11.103-37.478,32.614c0,20.822,15.037,34.935,37.71,34.935
			c13.881,0,24.06-3.473,30.304-13.419c0,6.709,5.553,12.262,12.263,12.262c6.705,0,12.258-5.553,12.258-12.262v-59.222
			C662.653,717.246,645.536,703.133,616.851,703.133z M637.9,772.767c0,12.954-11.335,20.818-23.594,20.818
			c-12.955,0-19.204-5.319-19.204-14.113c0-8.324,5.552-13.184,15.732-13.184H637.9V772.767z"/>
		<path fill="#AACC6D" d="M708.224,733.67c0-5.785,5.087-8.79,13.647-8.79c9.485,0,15.73,3.702,20.818,7.403
			c2.548,1.851,4.626,3.237,7.866,3.237c6.015,0,11.104-5.087,11.104-11.104c0-3.47-0.924-5.087-2.314-6.938
			c-6.478-8.1-21.051-14.345-37.475-14.345c-21.283,0-38.633,10.179-38.633,31.001c0,39.325,56.676,29.611,56.676,48.347
			c0,6.477-6.707,9.253-17.117,9.253c-11.568,0-19.201-4.394-25.449-9.481c-2.543-2.083-4.854-2.78-7.171-2.78
			c-6.013,0-11.104,5.092-11.104,11.104c0,2.779,0.926,4.859,2.776,7.175c5.785,7.17,21.052,16.191,40.948,16.191
			c23.826,0,42.333-11.104,42.333-32.848C765.13,742.923,708.224,750.79,708.224,733.67z"/>
		<path fill="#AACC6D" d="M833.369,703.133c-11.104,0-20.818,4.627-25.445,9.254v-53.209c0-6.938-5.552-12.49-12.494-12.49
			c-6.938,0-12.49,5.552-12.49,12.49V768.14c0,30.769,19.895,46.267,47.885,46.267c31.229,0,49.504-17.813,49.504-55.521
			C880.328,721.18,862.52,703.133,833.369,703.133z M830.824,793.123c-13.418,0-22.9-9.021-22.9-24.983v-31.927
			c0,0,9.021-11.797,22.9-11.797c15.73,0,24.754,11.568,24.754,34.47C855.578,781.555,846.789,793.123,830.824,793.123z"/>
		<path fill="#AACC6D" d="M944.638,703.133c-31.231,0-50.664,17.813-50.664,55.753c0,37.707,19.433,55.521,50.664,55.521
			c31.23,0,50.661-17.813,50.661-55.521C995.299,720.946,975.868,703.133,944.638,703.133z M944.638,793.123
			c-16.656,0-25.448-11.568-25.448-34.237c0-22.901,8.792-34.47,25.448-34.47s25.445,11.568,25.445,34.47
			C970.083,781.555,961.294,793.123,944.638,793.123z"/>
		<path fill="#AACC6D" d="M1159.54,703.133c-31.233,0-50.664,17.813-50.664,55.753c0,35.7,17.426,53.558,45.787,55.358v40.561
			c0,2.693,2.184,4.876,4.876,4.876c2.691,0,4.874-2.183,4.874-4.876v-40.561c28.36-1.799,45.788-19.656,45.788-55.358
			C1210.201,720.946,1190.771,703.133,1159.54,703.133z M1134.092,758.886c0-4.359,0.323-8.303,0.953-11.839l19.618,11.514v11.922
			l-15.979-9.381l-2.396-1.406c-0.678-0.397-1.433-0.619-2.192-0.672C1134.095,758.977,1134.092,758.934,1134.092,758.886z
			 M1164.413,758.561l19.618-11.514c0.632,3.536,0.954,7.479,0.954,11.839c0,0.048-0.004,0.091-0.004,0.138
			c-0.759,0.053-1.514,0.274-2.19,0.672l-2.396,1.406l-15.981,9.381V758.561z M1181.096,737.464l-0.701,0.412l-15.981,9.38v-21.089
			v-1.353C1172.092,726.031,1177.697,730.25,1181.096,737.464z M1154.663,724.814v1.377v21.064l-15.979-9.38l-0.7-0.411
			C1141.38,730.252,1146.986,726.032,1154.663,724.814z M1134.98,770.232l19.683,11.555v10.938
			C1143.944,791.027,1137.261,783.488,1134.98,770.232z M1164.413,792.726v-10.938l19.685-11.555
			C1181.818,783.489,1175.135,791.028,1164.413,792.726z"/>
		<path fill="#AACC6D" d="M1037.17,733.67c0-5.785,5.086-8.79,13.647-8.79c9.484,0,15.73,3.702,20.816,7.403
			c2.549,1.851,4.628,3.237,7.868,3.237c6.013,0,11.104-5.087,11.104-11.104c0-3.47-0.926-5.087-2.315-6.938
			c-6.477-8.1-21.051-14.345-37.474-14.345c-21.283,0-38.633,10.179-38.633,31.001c0,39.325,56.675,29.611,56.675,48.347
			c0,6.477-6.707,9.253-17.118,9.253c-11.568,0-19.198-4.394-25.448-9.481c-2.544-2.083-4.855-2.78-7.17-2.78
			c-6.014,0-11.104,5.092-11.104,11.104c0,2.779,0.925,4.859,2.776,7.175c5.783,7.17,21.05,16.191,40.946,16.191
			c23.827,0,42.334-11.104,42.334-32.848C1094.075,742.923,1037.17,750.79,1037.17,733.67z"/>
		<path fill="#AACC6D" d="M1303.887,704.523c-6.94,0-12.492,5.552-12.492,12.49v53.902c0,10.639-3.702,20.817-20.59,20.817
			c-17.117,0-20.819-10.179-20.819-20.817v-53.902c0-6.938-5.552-12.49-12.493-12.49c-6.939,0-12.491,5.552-12.491,12.49v53.902
			c0,22.669,8.561,43.49,45.804,43.49c37.014,0,45.572-20.821,45.572-43.49v-53.902
			C1316.377,710.075,1310.826,704.523,1303.887,704.523z"/>
		<path fill="#AACC6D" d="M1429.958,749.168c0-15.964-7.169-46.035-46.266-46.035c-31.462,0-49.968,19.896-49.968,55.289
			c0,38.636,19.896,55.984,52.051,55.984c21.054,0,33.312-9.025,37.246-12.726c2.082-1.851,3.934-4.855,3.934-8.558
			c0-6.016-4.859-10.871-10.872-10.871c-3.009,0-4.86,0.922-7.403,2.543c-5.553,3.702-12.726,7.171-22.904,7.171
			c-15.267,0-27.063-7.635-27.063-24.291h57.139C1429.958,767.675,1429.958,757.729,1429.958,749.168z M1359.404,746.857
			c1.157-14.807,10.872-22.441,24.288-22.441c15.037,0,21.515,11.104,21.515,22.441H1359.404z"/>
		<path fill="#AACC6D" d="M1470.903,733.67c0-5.785,5.087-8.79,13.647-8.79c9.484,0,15.73,3.702,20.822,7.403
			c2.543,1.851,4.626,3.237,7.862,3.237c6.018,0,11.104-5.087,11.104-11.104c0-3.47-0.926-5.087-2.311-6.938
			c-6.479-8.1-21.052-14.345-37.479-14.345c-21.283,0-38.633,10.179-38.633,31.001c0,39.325,56.679,29.611,56.679,48.347
			c0,6.477-6.71,9.253-17.12,9.253c-11.566,0-19.2-4.394-25.445-9.481c-2.549-2.083-4.859-2.78-7.171-2.78
			c-6.017,0-11.104,5.092-11.104,11.104c0,2.779,0.922,4.859,2.772,7.175c5.785,7.17,21.054,16.191,40.948,16.191
			c23.825,0,42.332-11.104,42.332-32.848C1527.809,742.923,1470.903,750.79,1470.903,733.67z"/>
		<path fill="#AACC6D" d="M1213.056,380.833c-15.703-4.781-32.308,4.072-37.088,19.775l-16.206,53.236
			c-7.211,23.683-12.441,48.126-17.184,71.14c-8.951,43.453-48.415,74.665-93.015,72.929c-49.432-1.926-87.788-44.147-87.788-93.615
			V357.867c0-9.198-7.457-16.655-16.655-16.655c-0.164,0-0.322,0.02-0.483,0.024c-0.162-0.004-0.32-0.024-0.483-0.024
			c-9.198,0-16.655,7.457-16.655,16.655l0.001,146.432c0,49.467-38.358,91.689-87.79,93.615
			c-44.598,1.736-84.063-29.476-93.014-72.929c-4.744-23.013-9.974-47.457-17.183-71.14l-16.207-53.236
			c-4.78-15.703-21.386-24.556-37.089-19.775c-1.896,0.577-2.964,2.583-2.389,4.479l23.818,78.236
			c6.799,22.339,11.648,44.984,16.421,68.156c13.097,63.574,74.093,107.948,140.263,98.261c39.35-5.761,71.937-29.858,90.307-62.742
			c18.37,32.884,50.956,56.981,90.308,62.742c66.169,9.688,127.164-34.687,140.261-98.261c4.773-23.171,9.623-45.817,16.422-68.156
			l23.816-78.236C1216.021,383.416,1214.951,381.41,1213.056,380.833z"/>
		<path fill="#AACC6D" d="M1022.286,567.309c-0.004,0.013-0.008,0.026-0.012,0.04c6.838,3.327,14.275,5.631,22.211,6.531
			c1.655,0.188,3.297,0.299,4.932,0.375c0.165,0.008,0.333,0.008,0.499,0.015c1.011,0.04,2.019,0.072,3.021,0.069
			c1,0.003,2.01-0.029,3.021-0.069c0.167-0.007,0.333-0.007,0.499-0.015c1.635-0.076,3.276-0.187,4.933-0.375
			c7.935-0.9,15.37-3.204,22.21-6.531c-0.004-0.014-0.009-0.027-0.012-0.04c23.895-11.517,40.434-35.959,40.434-64.213v-232.01
			c0-9.823-8.503-17.659-18.55-16.551c-8.499,0.938-14.763,8.438-14.763,16.988v76.39l12.961,7.608l2.159,1.266
			c1.478,0.868,2.391,2.519,2.167,4.217c-0.083,0.624-0.289,1.242-0.629,1.82c-0.334,0.572-0.769,1.049-1.267,1.423
			c-1.372,1.031-3.265,1.038-4.744,0.169l-2.183-1.28l-8.465-4.969v10.814l12.961,7.607l2.159,1.267
			c1.478,0.867,2.391,2.518,2.167,4.216c-0.083,0.625-0.289,1.243-0.629,1.82c-0.334,0.572-0.769,1.049-1.267,1.424
			c-1.372,1.031-3.265,1.038-4.744,0.168l-2.183-1.279l-8.465-4.97v123.86c0,20.863-16.931,37.838-37.771,37.932
			c-20.842-0.094-37.772-17.069-37.772-37.932v-69.361l-8.123,4.768l-2.182,1.279c-1.479,0.869-3.371,0.862-4.745-0.168
			c-0.497-0.375-0.932-0.852-1.267-1.423c-0.339-0.578-0.545-1.196-0.628-1.82c-0.224-1.699,0.689-3.35,2.167-4.217l2.158-1.267
			l12.619-7.406v-10.813l-8.123,4.767l-2.182,1.28c-1.479,0.869-3.371,0.862-4.745-0.169c-0.497-0.374-0.932-0.852-1.267-1.423
			c-0.339-0.577-0.545-1.196-0.628-1.82c-0.224-1.699,0.689-3.35,2.167-4.217l2.158-1.266l12.619-7.407v-126.13
			c0-8.549-6.264-16.05-14.763-16.988c-10.045-1.108-18.55,6.728-18.55,16.551v227.251
			C981.853,531.349,998.393,555.792,1022.286,567.309z"/>
		<path fill="#AACC6D" d="M1053.108,519.523c9.198,0,16.656-7.457,16.656-16.655V379.26l-8.426,4.945l-2.181,1.279
			c-1.479,0.869-3.372,0.862-4.744-0.168c-0.498-0.375-0.933-0.852-1.269-1.424c-0.339-0.577-0.544-1.195-0.627-1.82
			c-0.224-1.698,0.688-3.349,2.167-4.216l2.158-1.267l12.921-7.584v-10.813l-8.426,4.945l-2.181,1.28
			c-1.479,0.869-3.372,0.862-4.744-0.169c-0.498-0.375-0.933-0.852-1.269-1.423c-0.339-0.578-0.544-1.196-0.627-1.82
			c-0.224-1.699,0.688-3.35,2.167-4.217l2.158-1.266l12.921-7.584V236.975c0-9.199-7.458-16.655-16.656-16.655
			c-9.199,0-16.656,7.457-16.656,16.655v165.259l12.921,7.584l2.158,1.266c1.479,0.868,2.391,2.519,2.166,4.217
			c-0.082,0.624-0.287,1.243-0.626,1.82c-0.337,0.571-0.771,1.049-1.269,1.423c-1.372,1.032-3.265,1.038-4.744,0.169l-2.181-1.28
			l-8.426-4.945v10.814l12.921,7.583l2.158,1.267c1.479,0.867,2.391,2.519,2.166,4.217c-0.082,0.624-0.287,1.242-0.626,1.82
			c-0.337,0.572-0.771,1.049-1.269,1.423c-1.372,1.031-3.265,1.038-4.744,0.168l-2.181-1.279l-8.426-4.945v69.31
			C1036.452,512.067,1043.909,519.523,1053.108,519.523z"/>
		<path fill="#AACC6D" d="M805.685,567.309c-0.003,0.013-0.008,0.026-0.011,0.04c6.839,3.327,14.274,5.631,22.21,6.531
			c1.655,0.188,3.298,0.299,4.932,0.375c0.165,0.008,0.333,0.008,0.499,0.015c1.011,0.04,2.021,0.072,3.021,0.069
			c1.002,0.003,2.01-0.029,3.021-0.069c0.167-0.007,0.335-0.007,0.499-0.015c1.635-0.076,3.276-0.187,4.932-0.375
			c7.936-0.9,15.373-3.204,22.211-6.531c-0.002-0.014-0.008-0.027-0.01-0.04c23.892-11.517,40.432-35.959,40.432-64.213V275.844
			c0-9.823-8.503-17.659-18.55-16.551c-8.497,0.938-14.761,8.438-14.761,16.988v126.13l12.617,7.407l2.158,1.266
			c1.478,0.868,2.391,2.519,2.167,4.217c-0.081,0.624-0.288,1.243-0.627,1.82c-0.336,0.571-0.77,1.049-1.269,1.423
			c-1.372,1.032-3.264,1.038-4.744,0.169l-2.181-1.28l-8.122-4.767v10.813l12.617,7.406l2.158,1.267
			c1.478,0.867,2.391,2.519,2.167,4.217c-0.081,0.624-0.288,1.242-0.627,1.82c-0.336,0.572-0.77,1.049-1.269,1.423
			c-1.372,1.031-3.264,1.038-4.744,0.168l-2.181-1.279l-8.122-4.768v69.361c0,20.863-16.932,37.838-37.773,37.932
			c-20.842-0.094-37.772-17.069-37.772-37.932v-123.86l-8.466,4.97l-2.18,1.279c-1.482,0.869-3.373,0.862-4.745-0.168
			c-0.499-0.375-0.933-0.852-1.269-1.424c-0.338-0.577-0.544-1.195-0.626-1.82c-0.225-1.698,0.688-3.349,2.165-4.216l2.159-1.267
			l12.961-7.607v-10.814l-8.466,4.969l-2.18,1.28c-1.482,0.869-3.373,0.862-4.745-0.169c-0.499-0.375-0.933-0.852-1.269-1.423
			c-0.338-0.578-0.544-1.196-0.626-1.82c-0.225-1.699,0.688-3.35,2.165-4.217l2.159-1.266l12.961-7.608v-76.39
			c0-8.55-6.264-16.051-14.763-16.988c-10.045-1.108-18.549,6.728-18.549,16.551v232.01
			C765.252,531.349,781.791,555.792,805.685,567.309z"/>
		<path fill="#AACC6D" d="M836.164,519.523c9.199,0,16.656-7.457,16.656-16.655v-69.31l-8.426,4.945l-2.179,1.279
			c-1.481,0.869-3.374,0.862-4.745-0.168c-0.498-0.375-0.934-0.852-1.27-1.423c-0.338-0.578-0.544-1.196-0.627-1.82
			c-0.224-1.699,0.689-3.35,2.168-4.217l2.158-1.267l12.92-7.583v-10.814l-8.426,4.945l-2.179,1.28
			c-1.481,0.869-3.374,0.862-4.745-0.169c-0.498-0.374-0.934-0.852-1.27-1.423c-0.338-0.577-0.544-1.196-0.627-1.82
			c-0.224-1.699,0.689-3.35,2.168-4.217l2.158-1.266l12.92-7.584V236.975c0-9.199-7.457-16.655-16.656-16.655
			s-16.654,7.457-16.654,16.655v110.962l12.919,7.584l2.159,1.266c1.478,0.868,2.39,2.519,2.166,4.217
			c-0.082,0.624-0.288,1.242-0.627,1.82c-0.336,0.572-0.77,1.049-1.269,1.423c-1.372,1.031-3.263,1.038-4.745,0.169l-2.18-1.28
			l-8.424-4.945v10.813l12.919,7.584l2.159,1.267c1.478,0.867,2.39,2.518,2.166,4.216c-0.082,0.625-0.288,1.243-0.627,1.82
			c-0.336,0.572-0.77,1.049-1.269,1.424c-1.372,1.031-3.263,1.038-4.745,0.168l-2.18-1.279l-8.424-4.945v123.608
			C819.51,512.067,826.965,519.523,836.164,519.523z"/>
		<path fill="#AACC6D" d="M504.689,649.987c-15.815,0-26.443,3.766-33.451,9.824c-6.976-6.059-17.547-9.824-33.264-9.824
			c-37.229,0-45.783,20.813-45.783,43.472v109.474c0,6.936,5.551,12.486,12.487,12.486c6.936,0,12.485-5.551,12.485-12.486V693.459
			c0-10.636,3.7-20.81,20.811-20.81c16.881,0,20.58,10.174,20.58,20.81v109.474c0,6.936,5.55,12.486,12.486,12.486
			c0.059,0,0.118-0.008,0.177-0.01c0.059,0.002,0.116,0.01,0.176,0.01c6.936,0,12.484-5.551,12.484-12.486V693.459
			c0-10.636,3.701-20.81,20.812-20.81c16.88,0,20.579,10.174,20.579,20.81v109.474c0,6.936,5.551,12.486,12.487,12.486
			c6.936,0,12.486-5.551,12.486-12.486V693.459C550.242,670.8,541.688,649.987,504.689,649.987z"/>
	</g>
</g>
<g id="Isotipo">
</g>
</svg>
